<svg width="749" height="200" viewBox="0 0 749 200" fill="none" xmlns="http://www.w3.org/2000/svg">
<g clip-path="url(#clip0_131_2681)">
<path d="M154.786 61.3108C154.786 70.0448 152.565 71.8212 145.164 73.5976L110.672 82.0355C107.563 82.6276 106.379 83.9599 106.379 89.141V138.14C106.379 159.753 91.8717 175 70.5549 175C55.4555 175 45.8334 165.822 45.8334 152.943C45.8334 138.584 56.7878 130.294 70.851 126.593L84.322 123.041C91.5757 121.116 92.0198 120.08 92.0198 113.715V48.8761C92.0198 39.9941 93.6481 38.2177 101.198 36.4413L144.424 25.6349C152.417 23.7105 154.786 26.227 154.786 32.2964V61.3108Z" fill="white" fill-opacity="0.96"/>
<path d="M354.26 36.64V163H323.48V87.22L295.22 163H270.38L241.94 87.04V163H211.16V36.64H247.52L282.98 124.12L318.08 36.64H354.26ZM475.574 62.56V163H444.794V149.32C441.674 153.76 437.414 157.36 432.014 160.12C426.734 162.76 420.854 164.08 414.374 164.08C406.694 164.08 399.914 162.4 394.034 159.04C388.154 155.56 383.594 150.58 380.354 144.1C377.114 137.62 375.494 130 375.494 121.24V62.56H406.094V117.1C406.094 123.82 407.834 129.04 411.314 132.76C414.794 136.48 419.474 138.34 425.354 138.34C431.354 138.34 436.094 136.48 439.574 132.76C443.054 129.04 444.794 123.82 444.794 117.1V62.56H475.574ZM538.543 164.44C529.783 164.44 521.983 162.94 515.143 159.94C508.303 156.94 502.903 152.86 498.943 147.7C494.983 142.42 492.763 136.54 492.283 130.06H522.703C523.063 133.54 524.683 136.36 527.563 138.52C530.443 140.68 533.983 141.76 538.183 141.76C542.023 141.76 544.963 141.04 547.003 139.6C549.163 138.04 550.243 136.06 550.243 133.66C550.243 130.78 548.743 128.68 545.743 127.36C542.743 125.92 537.883 124.36 531.163 122.68C523.963 121 517.963 119.26 513.163 117.46C508.363 115.54 504.223 112.6 500.743 108.64C497.263 104.56 495.523 99.1 495.523 92.26C495.523 86.5 497.083 81.28 500.203 76.6C503.443 71.8 508.123 68.02 514.243 65.26C520.483 62.5 527.863 61.12 536.383 61.12C548.983 61.12 558.883 64.24 566.083 70.48C573.403 76.72 577.603 85 578.683 95.32H550.243C549.763 91.84 548.203 89.08 545.563 87.04C543.043 85 539.683 83.98 535.483 83.98C531.883 83.98 529.123 84.7 527.203 86.14C525.283 87.46 524.323 89.32 524.323 91.72C524.323 94.6 525.823 96.76 528.823 98.2C531.943 99.64 536.743 101.08 543.223 102.52C550.663 104.44 556.723 106.36 561.403 108.28C566.083 110.08 570.163 113.08 573.643 117.28C577.243 121.36 579.103 126.88 579.223 133.84C579.223 139.72 577.543 145 574.183 149.68C570.943 154.24 566.203 157.84 559.963 160.48C553.843 163.12 546.703 164.44 538.543 164.44ZM613.535 52.12C608.135 52.12 603.695 50.56 600.215 47.44C596.855 44.2 595.175 40.24 595.175 35.56C595.175 30.76 596.855 26.8 600.215 23.68C603.695 20.44 608.135 18.82 613.535 18.82C618.815 18.82 623.135 20.44 626.495 23.68C629.975 26.8 631.715 30.76 631.715 35.56C631.715 40.24 629.975 44.2 626.495 47.44C623.135 50.56 618.815 52.12 613.535 52.12ZM628.835 62.56V163H598.055V62.56H628.835ZM645.02 112.78C645.02 102.34 647.12 93.22 651.32 85.42C655.64 77.62 661.58 71.62 669.14 67.42C676.82 63.22 685.58 61.12 695.42 61.12C708.02 61.12 718.52 64.42 726.92 71.02C735.44 77.62 741.02 86.92 743.66 98.92H710.9C708.14 91.24 702.8 87.4 694.88 87.4C689.24 87.4 684.74 89.62 681.38 94.06C678.02 98.38 676.34 104.62 676.34 112.78C676.34 120.94 678.02 127.24 681.38 131.68C684.74 136 689.24 138.16 694.88 138.16C702.8 138.16 708.14 134.32 710.9 126.64H743.66C741.02 138.4 735.44 147.64 726.92 154.36C718.4 161.08 707.9 164.44 695.42 164.44C685.58 164.44 676.82 162.34 669.14 158.14C661.58 153.94 655.64 147.94 651.32 140.14C647.12 132.34 645.02 123.22 645.02 112.78Z" fill="white" fill-opacity="0.96"/>
</g>
<defs>
<clipPath id="clip0_131_2681">
<rect width="749" height="200" fill="white"/>
</clipPath>
</defs>
</svg>
